# Alias OBJ Model File
# Exported from SketchUp, (c) 2000-2012 Trimble Navigation Limited
# File units = meters

mtllib Canal.mtl

g Mesh1 Group1 Model

usemtl Color_H02
v 1 -1.66 1
vt -78.7402 0
vn 0 -1 -0
v -1 -1.66 1
vt 0 0
v -1 -1.66 -1
vt 0 78.7402
v 1 -1.66 -1
vt -78.7402 78.7402
f 1/1/1 2/2/1 3/3/1 4/4/1 

vn 0 0 1
vt 78.7402 0
v 1 -1.64 1
vt 78.7402 0.787402
v -1 -1.64 1
vt 0 0.787402
f 2/2/2 1/5/2 5/6/2 6/7/2 

vn 1 0 -0
v 1 -1.64 -1
f 1/2/3 4/5/3 7/6/3 5/7/3 

vn 0 0 -1
v -1 -1.64 -1
vt -78.7402 0.787402
f 4/1/4 3/2/4 8/7/4 7/8/4 

vn -1 0 -0
f 3/1/5 2/2/5 6/7/5 8/8/5 

vn 0 1 -0
vt 78.7402 78.7402
f 6/2/6 5/5/6 7/9/6 8/3/6 

