# Alias OBJ Model File
# Exported from SketchUp, (c) 2000-2012 Trimble Navigation Limited
# File units = meters

mtllib GateHouse_1.mtl

g Mesh1 Group1 Model

usemtl FrontColor
v -1 0.46974 0.745584
vt -9.44882 21.3835
vn -9.5277e-17 -0.932798 -0.360399
v -1 0.587807 0.44
vt -9.44882 34.2811
v -0.92 0.587807 0.44
vt -12.5984 34.2811
v 1 0.587807 0.44
vt -88.189 34.2811
v 1 0.46974 0.745584
vt -88.189 21.3835
f 1/1/1 2/2/1 3/3/1 4/4/1 5/5/1 

v -1.32 0.46974 0.745584
vt 3.14961 21.3835
vn 3.08938e-15 -0.932798 -0.360399
v -1.32 1.08235 -0.84
vt 3.14961 88.3053
v -1 1.08235 -0.84
vt -9.44882 88.3053
f 6/6/2 7/7/2 8/8/2 2/2/2 1/1/2 

v -1.32 0.507052 0.76
vt -1.13687e-13 59.3328
vn -1 0 -0
v -1.32 1.18705 -1
vt -69.2913 86.1044
v -1.32 1.14417 -1
vt -69.2913 84.4162
vt -62.9921 81.9824
vt -0.567558 57.8638
f 9/9/3 10/10/3 11/11/3 7/12/3 6/13/3 

vt -3.14961 95.6668
vn -3.37349e-16 0.932798 0.360399
vt -3.14961 21.3835
v 1 0.507052 0.76
vt 88.189 21.3835
v 1 1.18705 -1
vt 88.189 95.6668
f 10/14/4 9/15/4 12/16/4 13/17/4 

vt 88.189 55.3455
vn -7.13446e-16 -0.360399 0.932798
vt -3.14961 55.3455
vt -3.14961 53.7707
vt 9.44882 53.7707
vt 88.189 53.7707
f 12/18/5 9/19/5 6/20/5 1/21/5 5/22/5 

vt 1.05832e-12 59.3328
vn 1 1.50351e-14 1.20006e-14
vt 0.567558 57.8638
vt 12.5984 62.5121
v 1 1.14417 -1
vt 69.2913 84.4162
vt 69.2913 86.1044
f 12/23/6 5/24/6 4/25/6 14/26/6 13/27/6 

v -0.92 1.14417 -1
vt 12.5984 95.0584
vn 4.92379e-17 0.932798 0.360399
v -0.92 1.08235 -0.84
vt 12.5984 88.3053
vt 12.5984 34.2811
vt 88.189 34.2811
vt 88.189 95.0584
f 15/28/7 16/29/7 3/30/7 4/31/7 14/32/7 

v -1 1.14417 -1
vt 9.44882 95.0584
vn -2.27774e-17 0.932798 0.360399
vt 9.44882 88.3053
f 17/33/8 8/34/8 16/29/8 15/28/8 

vt -9.44882 95.0584
vn -7.0863e-16 -0.932798 -0.360399
vt 3.14961 95.0584
f 17/35/9 8/8/9 7/7/9 11/36/9 

vn -1 -4.1156e-15 3.43657e-15
v -1 -0.904 -1
vt -69.2913 3.77953
v -1 -0.904 0.44
vt -12.5984 3.77953
vt -12.5984 62.5121
f 17/11/10 18/37/10 19/38/10 2/39/10 8/12/10 

vt -12.5984 84.4162
vn -1.74012e-16 -4.86565e-15 -1
v -0.92 -0.935829 -1
vt -12.5984 2.5264
v -1 -0.935829 -1
vt -9.44882 2.5264
vt -9.44882 3.77953
vt -9.44882 84.4162
f 15/40/11 20/41/11 21/42/11 18/43/11 17/44/11 

vt -9.44882 69.2913
vn -4.93494e-16 -1 -3.52496e-17
vt -12.5984 69.2913
v -0.92 -0.935829 0.44
vt -12.5984 12.5984
v -1 -0.935829 0.44
vt -9.44882 12.5984
f 21/45/12 20/46/12 22/47/12 23/48/12 

v 1 -1 -1
vt -88.189 0
vn 0 0 -1
v -1.32 -1 -1
vt 3.14961 6.80787e-13
v -1.32 -0.904 -1
vt 3.14961 3.77953
v 1 -0.935829 -1
vt -88.189 2.5264
f 24/49/13 25/50/13 26/51/13 18/43/13 21/42/13 20/41/13 27/52/13 

vt 3.14961 69.2913
vn -2.23244e-11 -1 3.64043e-11
vt -88.189 69.2913
v 1 -1 0.44
vt -88.189 12.5984
v 1 -1 0.76
vt -88.189 5.27569e-09
v 0.360708 -1 0.76
vt -63.02 5.27569e-09
v 0.16 -1 0.76
vt -55.1181 1.47065e-09
v 0.16 -1 1
vt -55.1181 -9.44882
v -1.32 -1 1
vt 3.14961 -9.44882
f 25/53/14 24/54/14 28/55/14 29/56/14 30/57/14 31/58/14 32/59/14 33/60/14 

vt 69.2913 2.5264
vn 1 -1.9441e-28 8.02124e-15
v 1 -0.935829 0.44
vt 12.5984 2.5264
vt 12.5984 2.25153e-13
vt 69.2913 1.71448e-26
f 27/61/15 34/62/15 28/63/15 24/64/15 

vn 2.93747e-18 -1 -3.91662e-18
f 34/55/16 22/47/16 20/46/16 27/54/16 

vn 1.50398e-15 1.52716e-30 1
vt 88.189 2.5264
v 1 -0.904 0.44
vt 88.189 3.77953
v -0.92 -0.904 0.44
vt 12.5984 3.77953
f 22/62/17 34/65/17 35/66/17 36/67/17 

v 1 -0.952 0.76
vt 5.06421e-09 1.88976
vn 1 1.52433e-25 -2.25597e-15
vt 5.2755e-09 -5.25807e-13
v 1 -0.904 0.76
vt 4.75521e-09 3.77953
f 37/68/18 29/69/18 28/63/18 34/62/18 35/67/18 38/70/18 

vt 88.189 -5.25808e-13
vn 4.70169e-12 -1.78657e-10 1
vt 88.189 1.88976
v 0.400708 -0.952 0.76
vt 64.5948 1.88976
v 0.360708 -0.952 0.76
vt 63.02 1.88976
vt 63.02 1.13221e-09
f 29/71/19 37/72/19 39/73/19 40/74/19 30/75/19 

vt -64.5948 3.90788e-09
vn -5.33042e-12 -1 4.50138e-10
vt -88.189 4.21375e-09
v 1 -0.952 0.9392
vt -88.189 -7.05512
v 0.400708 -0.952 0.9392
vt -64.5948 -7.05512
f 39/76/20 37/77/20 41/78/20 42/79/20 

vn -4.86396e-11 6.05624e-10 1
v 0.400708 -0.904 0.76
vt 64.5948 3.77953
f 37/72/21 38/66/21 43/80/21 39/73/21 

vt -3.14961 69.2913
vn 2.21223e-11 1 -3.81172e-11
v -1.32 -0.904 1
vt -3.14961 -9.44882
v 0.16 -0.904 1
vt 55.1181 -9.44882
v 0.16 -0.904 0.76
vt 55.1181 4.42075e-09
vt 64.5948 7.21244e-09
vt 88.189 4.61134e-09
vt 88.189 12.5984
vt 12.5984 12.5984
vt 9.44882 12.5984
vt 9.44882 69.2913
f 26/81/22 44/82/22 45/83/22 46/84/22 43/85/22 38/86/22 35/87/22 36/88/22 19/89/22 18/90/22 

vt -69.2913 7.04471e-13
vn -1 -7.51991e-15 4.10177e-16
vt 9.44882 3.86732e-09
vt 9.44882 3.77953
f 25/91/23 33/92/23 44/93/23 26/37/23 

vt -3.14961 -6.44605e-11
vn -3.13964e-11 4.16111e-10 1
vt 55.1181 1.08009e-09
v 0.16 -0.966853 1
vt 55.1181 1.30498
v 0.16 -0.960306 1
vt 55.1181 1.56275
vt 55.1181 3.77953
vt -3.14961 3.77953
f 33/94/24 32/95/24 47/96/24 48/97/24 45/98/24 44/99/24 

v 0.16 -1 1.12657
vt 14.4318 -6.3115e-08
vn -1 -1.16143e-09 -8.55847e-10
v 0.16 -0.99 1.12657
vt 14.4318 0.393701
vt 9.44882 1.56275
vt 9.44882 1.30498
vt 9.44882 -5.9004e-08
f 49/100/25 50/101/25 48/102/25 47/103/25 32/104/25 

v 0.400708 -1 1.12657
vt 64.5948 6.45828e-09
vn -2.49861e-11 -3.52293e-10 1
v 1 -1 1.12657
vt 88.189 6.33538e-09
v 1 -0.99 1.12657
vt 88.189 0.393701
v 0.400708 -0.99 1.12657
vt 64.5948 0.393701
vt 55.1181 0.393701
vt 55.1181 5.98509e-09
f 51/105/26 52/106/26 53/107/26 54/108/26 50/109/26 49/110/26 

vt -88.189 -14.4318
vn -5.73346e-12 -1 -3.52078e-10
vt -64.5948 -14.4318
v 0.400708 -1 0.9392
v 1 -1 0.9392
f 52/111/27 51/112/27 55/79/27 56/78/27 

vt -7.05512 -1.61262e-08
vn 1 3.11322e-10 6.49159e-10
v 0.400708 -0.99 0.9392
vt -7.05512 0.393701
v 0.400708 -0.99 1.08838
vt -12.9285 0.393701
vt -14.4318 -1.87357e-08
f 55/113/28 57/114/28 58/115/28 51/116/28 

vt 1.31862e-08 1.88976
vn 1 -1.08907e-10 1.30469e-10
vt 1.57841e-08 3.77953
vt -14.4318 0.393701
vt -7.05512 1.88976
f 39/117/29 43/118/29 54/119/29 58/115/29 57/114/29 42/120/29 

vn 2.84536e-10 6.25327e-10 1
vt 55.1181 1.14429e-09
f 30/75/30 40/74/30 39/73/30 43/80/30 46/98/30 31/121/30 

vt 6.16795e-09 -1.58193e-07
vn 1 2.52817e-09 1.41582e-11
vt 5.83178e-09 1.88976
v 0.360708 -0.952 0.9392
v 0.360708 -1 0.9392
vt -7.05512 -1.55588e-07
f 30/122/31 40/123/31 59/120/31 60/124/31 

vt 63.02 -7.05512
vn -2.61841e-11 1 -2.46394e-11
vt 63.02 5.27569e-09
vt 55.1181 1.47065e-09
vt 55.1181 -14.4318
vt 64.5948 -14.4318
vt 64.5948 -7.05512
f 60/125/32 30/126/32 31/127/32 32/83/32 49/128/32 51/129/32 55/130/32 

vt -8.14559e-09 -5.3125e-09
vn -1 -1.17145e-10 -1.21103e-10
vt 9.44882 -1.44495e-09
vt -1.12398e-08 3.77953
f 31/131/33 32/132/33 47/103/33 46/133/33 

vt -9.44882 1.30498
vn 1 2.23137e-09 7.66081e-10
vt 4.67897e-08 3.77953
vt -9.44882 1.56275
f 47/134/34 46/135/34 48/136/34

vn 1 -9.06879e-10 2.98179e-11
vt 6.20832e-09 3.77953
f 45/43/35 48/136/35 46/137/35

vt 64.5948 -13.9603
vn -2.39382e-10 0.973566 0.228408
vt 64.5948 0.863273
vt 55.1181 0.863273
vt 55.1181 -8.8421
vt 55.1181 -13.9603
f 54/138/36 43/139/36 46/140/36 48/141/36 50/142/36 

vn -5.68454e-12 -1 -3.5217e-10
vt -64.5948 -12.9285
v 1 -0.99 0.9392
f 53/111/37 54/112/37 58/143/37 57/79/37 61/78/37 

vt -64.5948 1.88976
vn 2.37693e-11 -3.40983e-10 -1
vt -88.189 1.88976
vt -88.189 0.393701
vt -64.5948 0.393701
f 42/144/38 41/145/38 61/146/38 57/147/38 

vt -14.4318 1.74776e-09
vn 1 -5.63091e-12 -1.70762e-11
vt -7.05512 4.33253e-09
f 52/148/39 56/149/39 61/114/39 53/119/39 

vt 9.44882 62.5121
vn 7.35725e-16 1.29045e-15 1
vt 88.189 62.5121
f 2/150/40 19/93/40 36/67/40 35/66/40 4/151/40 3/25/40 

vt 9.44882 2.5264
vn 0 0 1
f 23/152/41 22/62/41 36/67/41 19/93/41 

vt -69.2913 2.5264
vn -1 1.31194e-30 1.00265e-15
f 21/153/42 23/41/42 19/38/42 18/37/42 

vn 1 5.63171e-15 8.05551e-15
f 34/62/43 27/61/43 14/26/43 4/25/43 35/67/43 

vt 9.44882 34.2811
vn -1.51849e-16 0.932798 0.360399
f 2/154/44 3/30/44 16/29/44 8/34/44 

vt 3.14961 84.4162
vn 1.34136e-15 3.6972e-15 -1
vt 3.14961 86.1044
vt -88.189 86.1044
vt -88.189 84.4162
f 11/155/45 10/156/45 13/157/45 14/158/45 15/40/45 17/44/45 

