# Alias OBJ Model File
# Exported from SketchUp, (c) 2000-2012 Trimble Navigation Limited
# File units = meters

mtllib Hall_1.mtl

g Mesh1 Group1 Model

usemtl FrontColor
v 1 -1 -1
vt -78.7402 78.7402
vn -9.89032e-15 -1 -9.67312e-15
v 1 -1 1
vt -78.7402 7.53309e-27
v -1 -1 1
vt -5.11591e-13 5.68434e-14
v -1 -1 -1
vt -5.11591e-13 78.7402
f 1/1/1 2/2/1 3/3/1 4/4/1 

v 1 -0.935829 -1
vt 78.7402 2.5264
vn 1 6.74993e-14 3.29917e-28
v 1 -0.935829 1
vt 2.84217e-14 2.5264
vt 2.59777e-26 -5.3149e-12
vt 78.7402 -4.54752e-12
f 5/5/2 6/6/2 2/7/2 1/8/2 

vn 1 2.70717e-15 -1.63773e-30
v 1 0.664171 -1
vt 78.7402 65.5185
v 1 0.664171 1
vt 3.69482e-13 65.5185
f 6/6/3 5/5/3 7/9/3 8/10/3 

v 0.04 1.18705 1
vt 4.42916e-13 5.22826
vn 0.47832 0.878186 -8.02268e-16
vt 2.37414e-13 -37.8097
vt 78.7402 -37.8097
v 0.04 1.18705 -1
vt 78.7402 5.22826
f 9/11/4 8/12/4 7/13/4 10/14/4 

v -1 -0.935829 1
vt 4.83169e-13 2.5264
vn -2.37637e-16 5.50565e-15 1
vt 5.11591e-13 7.88702e-13
vt 78.7402 1.03019e-28
vt 40.9449 86.1044
v -1 0.664171 1
vt 1.42109e-13 65.5185
f 11/15/5 3/16/5 2/17/5 6/5/5 8/9/5 9/18/5 12/19/5 

v -1 -0.935829 -1
vt -78.7402 2.5264
vn -1 -5.62494e-14 -2.5855e-28
vt -78.7402 1.54188e-12
vt -5.68434e-14 7.88702e-13
vt -2.84217e-14 2.5264
v -1 -0.935829 -1.08802e-14
vt -39.3701 2.5264
f 13/20/6 4/21/6 3/22/6 11/23/6 14/24/6 

vt -5.11591e-13 2.42769e-12
vn -5.68547e-29 -1.12499e-14 -1
vt -4.83169e-13 2.5264
v 0.04 -0.935829 -1
vt -40.9449 2.5264
vt -78.7402 1.6532e-12
f 4/25/7 13/26/7 15/27/7 5/20/7 1/28/7 

v 0.04 -0.935829 1.80966e-14
vt -40.9449 39.3701
vn -4.33841e-16 -1 -9.02389e-17
vt -1.41012e-13 39.3701
vt -4.82073e-13 78.7402
vt -40.9449 78.7402
f 16/29/8 14/30/8 13/31/8 15/32/8 

v 0.04 0.664171 1.80966e-14
vt 40.9449 65.5185
vn -2.77658e-14 -2.45858e-29 1
v -1 0.664171 -1.08802e-14
vt -1.06472e-12 65.5185
vt -9.51034e-13 2.5264
vt 40.9449 2.5264
f 17/33/9 18/34/9 14/35/9 16/36/9 

vt 40.9449 65.2473
vn -1.28629e-14 0.886169 0.463362
vt 40.9449 109.675
vt -1.06449e-12 65.2473
f 17/37/10 10/38/10 18/39/10

vt 39.3701 2.5264
vn 1 4.33738e-16 1.13397e-16
vt 78.7402 86.1044
vt 39.3701 65.5185
f 16/40/11 15/5/11 10/41/11 17/42/11 

vt 2.27374e-13 2.5264
vn 9.02389e-15 -1.02019e-15 -1
v -1 1.18705 -1
vt 7.10543e-13 86.1044
vt -40.9449 86.1044
f 13/43/12 19/44/12 10/45/12 15/27/12 

vt -78.7402 86.1044
vn -1 -4.34058e-15 -5.10532e-15
vt -39.3701 65.5185
f 19/46/13 13/20/13 14/24/13 18/47/13 

vn -1 -3.60956e-15 5.77529e-15
vt -3.69482e-13 65.5185
f 14/24/14 11/23/14 12/48/14 18/47/14 

vt -39.3701 29.4305
vn -0.449193 0.893435 -1.28083e-16
vt -3.69482e-13 29.4305
vt -5.23266e-13 75.2591
vt -78.7402 75.2591
f 18/49/15 12/50/15 9/51/15 10/52/15 

vn 1.19101e-15 0.886169 0.463362
vt 2.02392e-13 109.675
vt 1.29617e-13 65.2473
f 10/38/16 19/53/16 18/54/16

vt -105.641 72.9824
vn -0.345634 -0.634576 -0.691267
vt -17.6068 72.9824
vt -71.8359 99.6184
f 7/55/17 18/56/17 10/57/17

