# Alias OBJ Model File
# Exported from SketchUp, (c) 2000-2012 Trimble Navigation Limited
# File units = meters

mtllib Hall_3.mtl

g Mesh1 Group1 Model

usemtl FrontColor
v 1 0.664171 -1.08802e-14
vt 78.7402 65.5185
vn 0 0 1
v -1 0.664171 -1.08802e-14
vt 1.76215e-12 65.5185
v -1 -0.904 -1.08802e-14
vt 2.10321e-12 3.77953
v 1 -0.904 -1.08802e-14
vt 78.7402 3.77953
f 1/1/1 2/2/1 3/3/1 4/4/1 

v -1 1.18705 -1
vt 1.30308e-15 109.675
vn 7.6682e-18 0.886169 0.463362
vt 1.7628e-12 65.2473
vt 78.7402 65.2473
v 1 1.18705 -1
vt 78.7402 109.675
f 5/5/2 2/6/2 1/7/2 6/8/2 

vt 78.7402 39.3701
vn 2.81997e-17 1 4.39915e-16
vt 2.1031e-12 39.3701
v -1 -0.904 1
vt 3.75156e-12 3.00844e-14
v 1 -0.904 1
vt 78.7402 3.00844e-14
f 4/9/3 3/10/3 7/11/3 8/12/3 

v 1 -0.935829 -1.08802e-14
vt -78.7402 2.5264
vn 0 0 -1
v -1 -0.935829 -1.08802e-14
vt -2.10321e-12 2.5264
vt -2.10321e-12 3.77953
vt -78.7402 3.77953
f 9/13/4 10/14/4 3/15/4 4/16/4 

vt 2.10312e-12 39.3701
vn 3.38396e-17 1 -7.09854e-31
v 1 -0.935829 -1
vt 78.7402 78.7402
v -1 -0.935829 -1
vt 4.54662e-13 78.7402
f 10/17/5 9/9/5 11/18/5 12/19/5 

v 1 -1 -1
vt 78.7402 3.30586e-12
vn 1 8.27869e-15 -6.58764e-17
vt 78.7402 2.5264
vt 39.3701 2.5264
vt 39.3701 3.77953
vt 2.32346e-14 3.77953
v 1 -1 1
vt -5.18712e-15 1.55792e-12
f 13/20/6 11/21/6 9/22/6 4/23/6 8/24/6 14/25/6 

vn 1.80478e-16 -5.62494e-15 -1
vt -78.7402 4.40063e-12
v -1 -1 -1
vt -4.40536e-13 4.42909e-13
vt -4.40536e-13 2.5264
f 11/13/7 13/26/7 15/27/7 12/28/7 

vt -4.54747e-13 78.7402
vn 3.91767e-14 -1 -1.1125e-14
vt -78.7402 78.7402
vt -78.7402 -9.73429e-27
v -1 -1 1
vt -3.75167e-12 -1.63513e-39
f 15/29/8 13/30/8 14/31/8 16/32/8 

vt 3.75167e-12 3.77953
vn -1.57666e-28 1.12499e-14 1
vt 3.75167e-12 6.65442e-54
vt 78.7402 2.20979e-12
f 7/33/9 16/34/9 14/35/9 8/4/9 

vt -39.3701 2.5264
vn -1 2.34798e-27 4.18709e-14
vt -78.7402 8.80885e-39
vt 1.57085e-25 8.80885e-39
vt -2.84217e-14 3.77953
vt -39.3701 3.77953
f 10/36/10 12/13/10 15/37/10 16/38/10 7/39/10 3/40/10 

