# Alias OBJ Model File
# Exported from SketchUp, (c) 2000-2012 Trimble Navigation Limited
# File units = meters

mtllib Hall_6.mtl

g Mesh1 Group1 Model

usemtl FrontColor
v 1 -0.935829 1
vt -4.82073e-13 2.83989e-13
vn 4.33841e-16 -1 9.02389e-17
v -0.04 -0.935829 1
vt -40.9449 2.83989e-13
v -0.04 -0.935829 1.37668e-14
vt -40.9449 39.3701
v 1 -0.935829 1.52101e-14
vt -4.82073e-13 39.3701
f 1/1/1 2/2/1 3/3/1 4/4/1 

v -1 0.664171 1
vt 78.7402 65.5185
vn 3.65648e-15 2.18083e-16 1
v -1 -0.935829 1
vt 78.7402 2.5264
vt 40.9449 2.5264
vt 4.83169e-13 2.5264
v 1 1.18705 1
vt -2.70201e-27 86.1044
v -0.04 1.18705 1
vt 40.9449 86.1044
f 5/5/2 6/6/2 2/7/2 1/8/2 7/9/2 8/10/2 

v -1 -0.935829 -1
vn -1 1.35358e-15 1.08287e-15
vt 3.69482e-13 2.5264
vt 2.55795e-13 65.5185
v -1 0.664171 -1
f 9/6/3 6/11/3 5/12/3 10/5/3 

vt -40.9449 2.84031e-13
vn 1.52424e-16 -1 7.34699e-17
vt -78.7402 2.84031e-13
vt -78.7402 78.7402
v 1 -0.935829 -1
vt -4.82784e-13 78.7402
vt -4.82784e-13 39.3701
f 2/13/4 6/14/4 9/15/4 11/16/4 4/17/4 3/3/4 

vn -5.68425e-29 1.12499e-14 1
v -1 -1 1
vt 78.7402 2.51532e-12
v 1 -1 1
vt 5.11591e-13 3.28981e-12
f 2/7/5 6/6/5 12/18/5 13/19/5 1/8/5 

vt 1.7053e-13 -1.4213e-13
vn -1 3.37496e-14 -1.08287e-15
vt 1.98952e-13 2.5264
v -1 -1 -1
vt 78.7402 -1.42111e-12
f 12/20/6 6/21/6 9/6/6 14/22/6 

vt -78.7402 2.5264
vn 1.44382e-15 4.49995e-14 -1
vt -5.96856e-13 2.5264
v 1 -1 -1
vt -6.25278e-13 -3.54327e-12
vt -78.7402 -2.30692e-12
f 9/23/7 11/24/7 15/25/7 14/26/7 

vn 2.16285e-15 -7.5317e-16 -1
vt -78.7402 65.5185
v -0.04 1.18705 -1
vt -40.9449 86.1044
v 1 0.664171 -1
vt -7.10315e-13 65.5185
vt -6.53472e-13 2.5264
f 9/23/8 10/27/8 16/28/8 17/29/8 11/30/8 

vt 78.7402 5.22826
vn -0.47832 0.878186 5.19933e-16
vt 78.7402 -37.8097
vt 2.56121e-13 -37.8097
vt 4.4507e-14 5.22826
f 16/31/9 10/32/9 5/33/9 8/34/9 

vt -78.7402 29.4305
vn 0.449193 0.893435 -9.28601e-16
vt -78.7402 75.2591
vt -8.46439e-14 75.2591
v 1 0.664171 1.23235e-14
vt -39.3701 29.4305
f 17/35/10 16/36/10 8/37/10 18/38/10 

vt -40.9449 39.8975
vn -1.01236e-15 0.886169 -0.463362
vt -5.60921e-14 -4.52978
v -0.04 0.664171 1.37668e-14
vt -40.9449 -4.52978
f 8/39/11 18/40/11 19/41/11

vt 2.83842e-26 39.8975
vn -1.79247e-14 0.886169 -0.463362
vt 1.38089e-12 -4.52978
f 7/42/12 18/43/12 8/39/12

vt -7.38964e-13 86.1044
vn 1 -3.82927e-15 -2.92852e-15
vt -2.84217e-13 2.5264
vt -39.3701 2.5264
vt -39.3701 65.5185
f 7/44/13 1/45/13 4/46/13 11/23/13 17/27/13 18/47/13 

vt -78.7402 -5.75533e-27
vn 1 -1.12499e-14 2.36492e-28
vt -2.55795e-13 3.28981e-12
f 15/48/14 11/23/14 4/46/14 1/45/14 13/49/14 

vt -78.7402 2.55795e-13
vn -2.94583e-15 -1 2.90396e-14
vt -5.11591e-13 78.7402
vt -5.11591e-13 2.55795e-13
f 12/50/15 14/15/15 15/51/15 13/52/15 

