# Alias OBJ Model File
# Exported from SketchUp, (c) 2000-2012 Trimble Navigation Limited
# File units = meters

mtllib Hall_5.mtl

g Mesh1 Group1 Model

usemtl FrontColor
v 1 -1 -1
vt -5.11591e-13 78.7402
vn 9.92628e-15 -1 -9.65557e-15
v 1 -1 1
vt -5.11591e-13 5.68434e-14
v -1 -1 1
vt -78.7402 7.54676e-27
v -1 -1 -1
vt -78.7402 78.7402
f 1/1/1 2/2/1 3/3/1 4/4/1 

v 1 -0.935829 -1.08802e-14
vt -39.3701 2.5264
vn 1 -5.62494e-14 -2.58523e-28
v 1 -0.935829 1
vt -2.84217e-14 2.5264
vt -5.68434e-14 7.88702e-13
vt -78.7402 1.54188e-12
v 1 -0.935829 -1
vt -78.7402 2.5264
f 5/5/2 6/6/2 2/7/2 1/8/2 7/9/2 

v 1 0.664171 -1.08802e-14
vt -39.3701 65.5185
vn 1 -3.60956e-15 5.77529e-15
v 1 0.664171 1
vt -3.69482e-13 65.5185
f 8/10/3 9/11/3 6/6/3 5/5/3 

v -0.04 1.18705 -1
vt -78.7402 75.2591
vn 0.449193 0.893435 -1.44093e-16
v -0.04 1.18705 1
vt -5.24725e-13 75.2591
vt -3.69482e-13 29.4305
vt -39.3701 29.4305
f 10/12/4 11/13/4 9/14/4 8/15/4 

vt 78.7402 5.22826
vn -0.47832 0.878186 -7.84726e-16
v -1 0.664171 -1
vt 78.7402 -37.8097
v -1 0.664171 1
vt 2.40302e-13 -37.8097
vt 4.44417e-13 5.22826
f 10/16/5 12/17/5 13/18/5 11/19/5 

vt -71.8359 99.6184
vn 0.345634 -0.634576 -0.691267
vt -17.6068 72.9824
vt -105.641 72.9824
f 10/20/6 8/21/6 12/22/6

vt -1.05943e-12 65.2473
vn 1.28034e-14 0.886169 0.463362
vt 40.9449 109.675
v -0.04 0.664171 1.80966e-14
vt 40.9449 65.2473
f 8/23/7 10/24/7 14/25/7

vt 1.29617e-13 65.2473
vn -1.19101e-15 0.886169 0.463362
v 1 1.18705 -1
vt 2.02392e-13 109.675
f 8/26/8 15/27/8 10/24/8

vn 1 -4.34058e-15 -5.10532e-15
vt -78.7402 86.1044
f 8/10/9 5/5/9 7/9/9 15/28/9 

v -0.04 -0.935829 1.80966e-14
vt 40.9449 2.5264
vn 2.77658e-14 -2.45858e-29 1
vt -9.51034e-13 2.5264
vt -1.06472e-12 65.5185
vt 40.9449 65.5185
f 16/29/10 5/30/10 8/31/10 14/32/10 

vt -1.41012e-13 39.3701
vn 4.33841e-16 -1 -9.02389e-17
vt -40.9449 39.3701
v -0.04 -0.935829 -1
vt -40.9449 78.7402
vt -4.82073e-13 78.7402
f 5/33/11 16/34/11 17/35/11 7/36/11 

vn 2.31175e-16 -1 -1.49861e-17
vt -1.41525e-13 39.3701
vt -4.82585e-13 2.84596e-14
v -1 -0.935829 1
vt -78.7402 2.84596e-14
v -1 -0.935829 -1
f 17/35/12 16/34/12 5/37/12 6/38/12 18/39/12 19/4/12 

vt 40.9449 86.1044
vn -4.02534e-18 5.62235e-15 1
vt 78.7402 65.5185
vt 78.7402 2.5264
vt 4.83169e-13 2.5264
vt 1.42109e-13 65.5185
f 11/40/13 13/41/13 18/42/13 6/43/13 9/44/13 

vt 3.69482e-13 65.5185
vn -1 2.70717e-15 -1.63773e-30
vt 2.84217e-14 2.5264
f 13/45/14 12/41/14 19/42/14 18/46/14 

vn -3.65648e-15 -2.18083e-16 -1
vt -78.7402 65.5185
vt -40.9449 86.1044
vt 2.87912e-13 86.1044
vt -1.95257e-13 2.5264
vt -40.9449 2.5264
f 19/9/15 12/47/15 10/48/15 15/49/15 7/50/15 17/51/15 

vn 5.685e-29 -1.12499e-14 -1
vt -4.83169e-13 2.5264
vt -5.11591e-13 2.42769e-12
vt -78.7402 1.6532e-12
f 19/9/16 17/51/16 7/52/16 1/53/16 4/54/16 

vt 78.7402 -4.54752e-12
vn -1 6.74993e-14 3.28912e-28
vt 2.58985e-26 -5.3149e-12
f 4/55/17 3/56/17 18/46/17 19/42/17 

vn 3.60956e-16 1.71064e-27 1
vt 78.7402 4.86194e-41
vt 5.11591e-13 7.88702e-13
f 6/43/18 18/42/18 3/57/18 2/58/18 

